<?xml version="1.0" standalone="no"?>
<!DOCTYPE svg PUBLIC "-//W3C//DTD SVG 20010904//EN"
 "http://www.w3.org/TR/2001/REC-SVG-20010904/DTD/svg10.dtd">
<svg version="1.0" xmlns="http://www.w3.org/2000/svg"
 width="200.000000pt" height="200.000000pt" viewBox="0 0 200.000000 200.000000"
 preserveAspectRatio="xMidYMid meet">
<metadata>
Created by potrace 1.11, written by Peter Selinger 2001-2013
</metadata>
<g transform="translate(0.000000,200.000000) scale(0.100000,-0.100000)"
fill="#000000" stroke="none">
<path d="M0 1000 l0 -1000 1000 0 1000 0 0 1000 0 1000 -1000 0 -1000 0 0
-1000z m905 679 c76 -8 127 -8 211 2 132 14 182 8 251 -31 106 -61 143 -144
143 -320 0 -95 -3 -120 -14 -120 -7 0 -19 7 -26 15 -7 8 -20 15 -29 14 -11 0
-10 -3 6 -9 12 -5 24 -18 28 -29 3 -12 13 -21 20 -21 11 0 13 -14 8 -68 l-6
-68 39 4 c37 4 39 6 41 40 3 56 36 146 54 150 25 5 49 -26 49 -62 0 -34 -51
-168 -86 -226 -12 -19 -27 -52 -33 -72 -14 -42 -26 -55 -61 -60 -21 -3 -26
-12 -40 -73 -25 -106 -63 -164 -157 -236 -49 -39 -53 -44 -53 -84 0 -57 -28
-91 -104 -125 -34 -15 -68 -35 -76 -44 -16 -20 -19 -73 -8 -123 l8 -33 -48 0
-47 0 3 63 c3 57 1 67 -24 96 -16 20 -58 47 -103 67 -87 40 -101 54 -101 104
0 32 -7 43 -66 95 -85 75 -119 129 -139 221 -16 70 -18 73 -48 76 -22 2 -35
10 -43 28 -6 14 -23 50 -39 80 -46 90 -95 219 -95 249 0 36 35 69 57 55 8 -5
27 -48 41 -94 14 -47 27 -86 28 -88 1 -2 14 -5 29 -6 l27 -3 -4 68 c-2 48 1
69 9 69 6 0 14 -10 16 -22 3 -14 5 -9 6 15 1 31 -2 37 -19 37 -23 0 -23 -2 -9
115 20 171 50 254 113 314 38 37 113 63 161 56 17 -3 75 -10 130 -16z m-675
-1543 c0 -2 -7 -7 -16 -10 -8 -3 -12 -2 -9 4 6 10 25 14 25 6z m-81 -30 c-2
-2 -15 -7 -29 -10 l-25 -7 25 15 c21 12 42 14 29 2z m1805 -12 c4 -9 4 -19 1
-22 -3 -3 -5 0 -5 6 0 7 -7 12 -15 12 -8 0 -15 5 -15 10 0 16 27 11 34 -6z"/>
<path d="M604 1321 c-53 -24 -68 -46 -17 -25 47 20 111 14 212 -21 85 -29 111
-31 111 -11 0 17 -83 50 -165 65 -78 15 -93 14 -141 -8z"/>
<path d="M1270 1333 c-52 -9 -160 -46 -171 -59 -22 -26 18 -26 103 1 114 37
175 42 219 20 l34 -18 -19 22 c-30 33 -93 46 -166 34z"/>
<path d="M688 1243 c23 -2 61 -2 85 0 23 2 4 4 -43 4 -47 0 -66 -2 -42 -4z"/>
<path d="M1238 1243 c23 -2 59 -2 80 0 20 2 1 4 -43 4 -44 0 -61 -2 -37 -4z"/>
<path d="M536 1231 c-4 -5 3 -7 14 -4 23 6 26 13 6 13 -8 0 -17 -4 -20 -9z"/>
<path d="M908 1229 c9 -3 20 -21 23 -40 l6 -34 2 33 1 34 68 -3 c37 -2 75 1
84 6 11 7 -18 10 -92 10 -60 0 -102 -3 -92 -6z"/>
<path d="M587 1201 c3 -12 10 -24 16 -28 6 -4 8 0 4 10 -5 14 1 17 42 17 47 0
48 0 43 -30 -5 -36 20 -70 52 -70 27 0 40 9 55 38 10 19 9 22 -7 22 -11 0 -25
7 -32 15 -13 16 -10 18 35 28 11 3 -23 5 -75 6 -52 1 -105 4 -117 7 -18 5 -21
3 -16 -15z m137 -57 c5 -13 14 -15 39 -10 30 6 31 6 15 -11 -14 -13 -23 -15
-45 -7 -15 5 -29 17 -31 27 -4 22 14 22 22 1z"/>
<path d="M1290 1210 c-58 -3 -100 -7 -94 -8 6 -1 9 -15 6 -32 -9 -60 56 -92
98 -50 26 26 25 47 -2 46 -14 -1 -24 6 -26 17 -3 17 3 18 67 15 50 -2 72 1 76
10 2 6 -1 11 -8 10 -7 -1 -59 -5 -117 -8z m-56 -66 c5 -13 14 -15 39 -10 30 6
31 6 15 -11 -14 -13 -23 -15 -45 -7 -15 5 -29 17 -31 27 -4 22 14 22 22 1z"/>
<path d="M1651 1164 c0 -11 3 -14 6 -6 3 7 2 16 -1 19 -3 4 -6 -2 -5 -13z"/>
<path d="M425 1020 c3 -5 8 -10 11 -10 2 0 4 5 4 10 0 6 -5 10 -11 10 -5 0 -7
-4 -4 -10z"/>
</g>
</svg>
